<svg width="44" height="44" viewBox="0 0 44 44" fill="none" xmlns="http://www.w3.org/2000/svg">
<g id="&#240;&#159;&#166;&#134; icon &#34;Facebook v1&#34;">
<path id="Vector" d="M43.5 22C43.5 33.8741 33.8741 43.5 22 43.5C10.1259 43.5 0.5 33.8741 0.5 22C0.5 10.1259 10.1259 0.5 22 0.5C33.8741 0.5 43.5 10.1259 43.5 22Z" stroke="white"/>
<path id="Vector_2" d="M23.7104 33.0001V22.9798H27.0877L27.5947 19.0567H23.7104V16.5603C23.7104 15.4259 24.024 14.6567 25.6482 14.6567H27.7064V11.1591C27.3498 11.1118 26.1209 11.0044 24.69 11.0044C21.7037 11.0044 19.6584 12.8263 19.6584 16.1735V19.061H16.2939V22.9841H19.6584V33.0001H23.7104Z" fill="white"/>
</g>
</svg>
