<svg width="44" height="44" viewBox="0 0 44 44" fill="none" xmlns="http://www.w3.org/2000/svg">
<g id="&#240;&#159;&#166;&#134; icon &#34;Facebook v1&#34;">
<path id="Vector" d="M43.5 22C43.5 33.8741 33.8741 43.5 22 43.5C10.1259 43.5 0.5 33.8741 0.5 22C0.5 10.1259 10.1259 0.5 22 0.5C33.8741 0.5 43.5 10.1259 43.5 22Z" stroke="#222222"/>
<path id="Vector_2" d="M23.7102 32.9996V22.9793H27.0875L27.5945 19.0563H23.7102V16.5598C23.7102 15.4254 24.0238 14.6563 25.6481 14.6563H27.7063V11.1586C27.3496 11.1113 26.1207 11.0039 24.6899 11.0039C21.7035 11.0039 19.6582 12.8258 19.6582 16.173V19.0605H16.2938V22.9836H19.6582V32.9996H23.7102Z" fill="#222222"/>
</g>
</svg>
