<svg width="44" height="44" viewBox="0 0 44 44" fill="none" xmlns="http://www.w3.org/2000/svg">
<g id="&#240;&#159;&#166;&#134; icon &#34;Instagram&#34;">
<path id="Vector" d="M43.5 22C43.5 33.8741 33.8741 43.5 22 43.5C10.1259 43.5 0.5 33.8741 0.5 22C0.5 10.1259 10.1259 0.5 22 0.5C33.8741 0.5 43.5 10.1259 43.5 22Z" stroke="#222222"/>
<path id="Vector_2" d="M22 11C19.0137 11 18.6398 11.0129 17.4668 11.0645C16.2938 11.1203 15.4988 11.3051 14.7984 11.5758C14.0766 11.8551 13.4621 12.2332 12.8477 12.8434C12.2332 13.4535 11.8594 14.068 11.5801 14.7941C11.3094 15.4945 11.1246 16.2938 11.0688 17.4625C11.0129 18.6355 11.0043 19.0094 11.0043 21.9957C11.0043 24.982 11.0172 25.3559 11.0688 26.5289C11.1246 27.6977 11.3094 28.4969 11.5801 29.1973C11.8594 29.9191 12.2375 30.5336 12.8477 31.1481C13.4578 31.7582 14.0723 32.1363 14.7984 32.4156C15.4988 32.6863 16.2981 32.8711 17.4668 32.927C18.6398 32.9828 19.0137 32.9914 22 32.9914C24.9863 32.9914 25.3602 32.9785 26.5332 32.927C27.702 32.8711 28.5012 32.6863 29.2016 32.4156C29.9234 32.1363 30.5379 31.7582 31.1523 31.1481C31.7625 30.5379 32.1406 29.9234 32.4199 29.1973C32.6906 28.4969 32.8754 27.6977 32.9313 26.5289C32.9871 25.3559 32.9957 24.982 32.9957 21.9957C32.9957 19.0094 32.9828 18.6355 32.9313 17.4625C32.8754 16.2938 32.6906 15.4945 32.4199 14.7941C32.1406 14.0723 31.7625 13.4578 31.1523 12.8434C30.5422 12.2332 29.9277 11.8551 29.2016 11.5758C28.5012 11.3051 27.702 11.1203 26.5332 11.0645C25.3602 11.0129 24.9863 11 22 11ZM22 12.9809C24.9348 12.9809 25.2871 12.9938 26.4473 13.0453C27.5215 13.0969 28.1016 13.273 28.4883 13.4277C29.0039 13.6254 29.3691 13.866 29.7559 14.2484C30.1383 14.6352 30.3789 15.0004 30.5766 15.516C30.727 15.9027 30.9074 16.4828 30.9547 17.557C31.0063 18.7172 31.0191 19.0652 31.0191 22.0043C31.0191 24.9434 31.0063 25.2914 30.9504 26.4516C30.8945 27.5258 30.7141 28.1059 30.5637 28.4926C30.3574 29.0082 30.1254 29.3734 29.7387 29.7602C29.3563 30.1426 28.9824 30.3832 28.4754 30.5809C28.0887 30.7313 27.5 30.9117 26.4258 30.959C25.257 31.0105 24.9133 31.0234 21.9699 31.0234C19.0266 31.0234 18.6828 31.0105 17.5141 30.9547C16.4398 30.8988 15.8512 30.7184 15.4645 30.568C14.9445 30.3617 14.5836 30.1297 14.2012 29.743C13.8145 29.3605 13.5695 28.9867 13.3762 28.4797C13.2258 28.093 13.0453 27.5043 12.9895 26.4301C12.9465 25.2742 12.9336 24.9176 12.9336 21.9914C12.9336 19.0609 12.9465 18.7043 12.9895 17.5355C13.0453 16.4613 13.2215 15.8727 13.3762 15.4859C13.5695 14.9617 13.8145 14.6051 14.2012 14.2184C14.5836 13.8359 14.9445 13.5867 15.4645 13.3934C15.8512 13.243 16.427 13.0625 17.5012 13.0066C18.6699 12.9637 19.0137 12.9508 21.957 12.9508L22 12.9809ZM22 16.3496C18.8805 16.3496 16.3496 18.8805 16.3496 22C16.3496 25.1195 18.8805 27.6504 22 27.6504C25.1195 27.6504 27.6504 25.1195 27.6504 22C27.6504 18.8805 25.1195 16.3496 22 16.3496ZM22 25.6652C19.9762 25.6652 18.3348 24.0238 18.3348 22C18.3348 19.9762 19.9762 18.3348 22 18.3348C24.0238 18.3348 25.6652 19.9762 25.6652 22C25.6652 24.0238 24.0238 25.6652 22 25.6652ZM29.193 16.1305C29.193 16.8609 28.6 17.4496 27.8738 17.4496C27.1434 17.4496 26.5547 16.8566 26.5547 16.1305C26.5547 15.4043 27.1477 14.8113 27.8738 14.8113C28.6 14.807 29.193 15.4 29.193 16.1305Z" fill="#222222"/>
</g>
</svg>
