<svg width="28" height="28" viewBox="0 0 28 28" fill="none" xmlns="http://www.w3.org/2000/svg">
<g id="link">
<mask id="mask0_303_3223" style="mask-type:alpha" maskUnits="userSpaceOnUse" x="0" y="0" width="28" height="28">
<rect id="Bounding box" width="28" height="28" fill="#D9D9D9"/>
</mask>
<g mask="url(#mask0_303_3223)">
<g id="link_2">
<path d="M12.8335 19.8327H8.16683C6.55294 19.8327 5.17744 19.2637 4.04033 18.1258C2.90244 16.9887 2.3335 15.6132 2.3335 13.9993C2.3335 12.3855 2.90244 11.0096 4.04033 9.87168C5.17744 8.73457 6.55294 8.16602 8.16683 8.16602H12.8335V10.4993H8.16683C7.19461 10.4993 6.36822 10.8396 5.68766 11.5202C5.00711 12.2007 4.66683 13.0271 4.66683 13.9993C4.66683 14.9716 5.00711 15.798 5.68766 16.4785C6.36822 17.1591 7.19461 17.4993 8.16683 17.4993H12.8335V19.8327ZM9.3335 15.166V12.8327H18.6668V15.166H9.3335ZM15.1668 19.8327V17.4993H19.8335C20.8057 17.4993 21.6321 17.1591 22.3127 16.4785C22.9932 15.798 23.3335 14.9716 23.3335 13.9993C23.3335 13.0271 22.9932 12.2007 22.3127 11.5202C21.6321 10.8396 20.8057 10.4993 19.8335 10.4993H15.1668V8.16602H19.8335C21.4474 8.16602 22.8233 8.73457 23.9612 9.87168C25.0983 11.0096 25.6668 12.3855 25.6668 13.9993C25.6668 15.6132 25.0983 16.9887 23.9612 18.1258C22.8233 19.2637 21.4474 19.8327 19.8335 19.8327H15.1668Z" fill="#2E2E2E"/>
</g>
</g>
</g>
</svg>
