<svg width="845" height="264" viewBox="0 0 845 264" fill="none" xmlns="http://www.w3.org/2000/svg">
<path d="M572.7 123.2V148.4H572C568.9 131.8 556.3 118.2 539.4 114.2C538.8 114.1 538.3 113.9 537.7 113.8C511.3 107.5 485.6 105.6 485.6 83.2996C485.6 68.3996 500.1 57.5996 526.9 57.5996C562.6 57.5996 569.7 76.5996 572.7 91.0996H602.5C599.5 58.3996 574.2 31.5996 527 31.5996C482.4 31.5996 455.9 55.7996 455.9 85.4996C455.9 130.1 499.1 133.5 528.1 140.6C546.2 145.1 563.4 147.2 572.7 156.4C572.7 156.2 572.7 156.1 572.7 155.9V156.4C577.4 160.9 580.1 167.2 580.1 176.4C580.1 189 567.4 205.8 535.1 205.8C487.5 205.8 480 184.6 478.2 163.4H448.4C450.3 204.3 477 231.9 535.1 231.9C578.3 231.9 609.9 209.2 609.9 174.6C609.9 143.8 593.5 130.8 572.7 123.2Z" fill="white"/>
<path d="M792.4 202.499C792.3 202.499 792.3 202.499 792.4 202.499C789 201.899 786.5 198.999 786.5 195.499V151.399C786.5 135.799 774.5 123.099 759.3 121.799V121.699V121.499V120.199C768.1 114.599 796 93.5992 779.4 60.0992C768 38.9992 744 31.6992 718.1 31.6992C665.4 31.6992 642.3 56.9992 638.9 91.1992H668.7C671.6 66.9992 684.1 57.6992 718.1 57.6992C748.6 57.6992 756.8 70.2992 756.8 85.1992C756.8 104.199 742.3 108.199 710.3 114.199C661.2 123.499 629.3 134.599 629.3 177.799C629.3 209.799 653.5 231.699 691.7 231.699C722.9 231.699 744.1 220.499 756 202.699H756.7C756.7 216.899 768.2 228.299 782.4 228.299H808V202.499H792.4ZM756.8 121.699V153.299C756.8 189.699 730 205.699 694.7 205.699C670.2 205.699 659 194.899 659 176.299C659 153.599 676 144.099 712.9 136.499C732 132.699 746.1 126.799 756.8 121.699Z" fill="white"/>
<path d="M416.4 202.499C416.3 202.499 416.3 202.499 416.4 202.499C413 201.899 410.5 198.999 410.5 195.499V151.399C410.5 135.799 398.5 123.099 383.3 121.799V121.699V121.499V120.199C392.1 114.599 420 93.5992 403.4 60.0992C391.9 38.9992 368 31.6992 342 31.6992C289.3 31.6992 266.2 56.9992 262.8 91.1992H292.6C295.5 66.9992 308 57.7992 342 57.7992C372.5 57.7992 380.7 70.3992 380.7 85.2992C380.7 104.299 366.2 108.299 334.2 114.299C285.1 123.599 253.2 134.699 253.2 177.899C253.2 209.899 277.4 231.799 315.6 231.799C346.8 231.799 368 220.599 379.9 202.799H380.6C380.6 216.999 392.1 228.399 406.3 228.399H432V202.599H416.4V202.499ZM380.7 121.699V153.299C380.7 189.699 353.9 205.699 318.6 205.699C294.1 205.699 282.9 194.899 282.9 176.299C282.9 153.599 299.9 144.099 336.8 136.499C356 132.699 370 126.799 380.7 121.699Z" fill="white"/>
<path d="M48.5002 131.499C48.5002 135.299 49.7002 138.199 52.0002 140.099C54.3002 141.999 57.4002 142.899 61.3002 142.899C65.2002 142.899 68.2002 142.099 70.2002 140.499C72.2002 138.899 73.2002 136.799 73.2002 134.299C73.2002 132.599 72.7002 131.199 71.8002 130.099C70.9002 128.999 69.5002 128.099 67.7002 127.499C65.9002 126.799 63.7002 126.199 61.2002 125.599L58.7002 125.099C54.9002 124.199 51.6002 123.099 48.8002 121.699C46.0002 120.299 43.9002 118.599 42.4002 116.399C40.9002 114.199 40.2002 111.399 40.2002 107.899C40.2002 104.399 41.0002 101.399 42.7002 98.8992C44.4002 96.3992 46.7002 94.4992 49.8002 93.1992C52.8002 91.8992 56.4002 91.1992 60.5002 91.1992C64.6002 91.1992 68.3002 91.8992 71.5002 93.2992C74.7002 94.6992 77.2002 96.7992 79.1002 99.4992C81.0002 102.299 81.9002 105.699 81.9002 109.899H72.0002C72.0002 107.499 71.5002 105.599 70.6002 104.199C69.7002 102.799 68.3002 101.699 66.6002 100.999C64.9002 100.299 62.9002 99.9992 60.5002 99.9992C57.1002 99.9992 54.5002 100.699 52.7002 101.999C50.9002 103.299 50.0002 105.199 50.0002 107.699C50.0002 109.299 50.4002 110.599 51.2002 111.599C52.0002 112.699 53.2002 113.599 54.8002 114.299C56.4002 114.999 58.4002 115.599 60.7002 116.099L63.2002 116.699C67.2002 117.599 70.7002 118.699 73.7002 120.099C76.7002 121.499 79.0002 123.199 80.7002 125.499C82.4002 127.699 83.2002 130.599 83.2002 134.099C83.2002 137.599 82.3002 140.699 80.5002 143.299C78.7002 145.999 76.2002 147.999 72.9002 149.499C69.7002 150.999 65.8002 151.699 61.4002 151.699C57.0002 151.699 53.0002 150.899 49.6002 149.299C46.2002 147.699 43.5002 145.399 41.6002 142.399C39.7002 139.399 38.7002 135.799 38.7002 131.399H48.5002V131.499Z" fill="white"/>
<path d="M105.6 149.399V100.299H88.2002V91.1992H132.9V100.299H115.5V149.399H105.6Z" fill="white"/>
<path d="M164.9 150.5C160.2 150.5 156.2 149.7 152.9 148C149.5 146.3 147 143.9 145.2 140.6C143.4 137.4 142.5 133.6 142.5 129.1V91.0996H152.5V129.3C152.5 133.2 153.6 136.2 155.7 138.3C157.9 140.4 160.9 141.5 164.9 141.5C168.9 141.5 172 140.4 174.2 138.3C176.3 136.2 177.4 133.2 177.4 129.3V91.1996H187.4V129.2C187.4 133.6 186.5 137.5 184.7 140.7C182.9 143.9 180.3 146.4 177 148.1C173.6 149.7 169.6 150.5 164.9 150.5Z" fill="white"/>
<path d="M37 231.7V222.9H44.8V182.3H37V173.5H60.7C68.5 173.5 74.4 175.5 78.5 179.4C82.6 183.3 84.7 189.2 84.7 197.1V208.1C84.7 216 82.6 221.9 78.5 225.8C74.4 229.7 68.5 231.7 60.7 231.7H37ZM54.8 222.7H60.8C65.5 222.7 69 221.5 71.3 219C73.6 216.6 74.7 213 74.7 208.4V196.8C74.7 192.1 73.6 188.5 71.3 186.1C69 183.7 65.5 182.5 60.8 182.5H54.8V222.7Z" fill="white"/>
<path d="M105.6 231.7V173.5H115.7V231.7H105.6Z" fill="white"/>
<path d="M206.1 231.699V220.699H216.2V231.699H206.1Z" fill="white"/>
<path d="M164.9 231.699C157.7 231.699 151.9 229.699 147.7 225.699C143.4 221.699 141.3 215.899 141.3 208.399V194.599C141.3 187.099 143.4 181.299 147.7 177.299C152 173.299 157.7 171.299 164.9 171.299C172.2 171.299 177.9 173.299 182.2 177.299C186.5 181.299 188.6 187.099 188.6 194.599V208.399C188.6 215.899 186.5 221.699 182.2 225.699C178 229.699 172.2 231.699 164.9 231.699ZM164.9 222.799C169.2 222.799 172.6 221.499 175 218.999C177.4 216.499 178.6 213.099 178.6 208.699V194.199C178.6 189.899 177.4 186.499 175 183.899C172.6 181.399 169.2 180.099 164.9 180.099C160.6 180.099 157.3 181.399 154.9 183.899C152.5 186.399 151.3 189.799 151.3 194.199V208.699C151.3 212.999 152.5 216.399 154.9 218.999C157.3 221.499 160.7 222.799 164.9 222.799Z" fill="white"/>
</svg>
